<?xml version="1.0" encoding="UTF-8"?>
<svg width="127px" height="92px" viewBox="0 0 127 92" version="1.1" xmlns="http://www.w3.org/2000/svg" xmlns:xlink="http://www.w3.org/1999/xlink">
    <!-- Generator: Sketch 52.6 (67491) - http://www.bohemiancoding.com/sketch -->
    <title>”</title>
    <desc>Created with Sketch.</desc>
    <g id="Welcome" stroke="none" stroke-width="1" fill="none" fill-rule="evenodd" opacity="0.0541759673">
        <g id="Desktop-HD-Copy" transform="translate(-655.000000, -741.000000)" fill="#000000">
            <g id="Group-22" transform="translate(232.000000, 682.000000)">
                <path d="M431.38,150.22 C429.33999,151.126671 427.526675,150.900007 425.94,149.54 C424.353325,148.179993 423.56,146.48001 423.56,144.44 C423.56,142.173322 424.693322,140.586671 426.96,139.68 C436.706715,136.053315 443.959976,131.803358 448.72,126.93 C453.480024,122.056642 455.86,116.220034 455.86,109.42 C455.86,105.566647 454.726678,102.450012 452.46,100.07 C450.193322,97.6899881 447.02002,95.1400136 442.94,92.42 C438.85998,89.6999864 435.743344,87.206678 433.59,84.94 C431.436656,82.673322 430.36,79.840017 430.36,76.44 C430.36,72.1333118 432.003317,68.2233509 435.29,64.71 C438.576683,61.1966491 442.599976,59.44 447.36,59.44 C453.706698,59.44 459.486641,61.4233135 464.7,65.39 C469.913359,69.3566865 474.049985,74.5133016 477.11,80.86 C480.170015,87.2066984 481.7,93.5533016 481.7,99.9 C481.7,112.820065 476.826715,123.416625 467.08,131.69 C457.333285,139.963375 445.433404,146.13998 431.38,150.22 Z M499.38,150.22 C497.33999,151.126671 495.526675,150.900007 493.94,149.54 C492.353325,148.179993 491.56,146.48001 491.56,144.44 C491.56,142.173322 492.693322,140.586671 494.96,139.68 C504.706715,136.053315 511.959976,131.803358 516.72,126.93 C521.480024,122.056642 523.86,116.220034 523.86,109.42 C523.86,105.566647 522.726678,102.450012 520.46,100.07 C518.193322,97.6899881 515.02002,95.1400136 510.94,92.42 C506.85998,89.6999864 503.743344,87.206678 501.59,84.94 C499.436656,82.673322 498.36,79.840017 498.36,76.44 C498.36,72.1333118 500.059983,68.2233509 503.46,64.71 C506.860017,61.1966491 510.826644,59.44 515.36,59.44 C521.706698,59.44 527.486641,61.4233135 532.7,65.39 C537.913359,69.3566865 542.049985,74.5133016 545.11,80.86 C548.170015,87.2066984 549.7,93.5533016 549.7,99.9 C549.7,112.820065 544.826715,123.416625 535.08,131.69 C525.333285,139.963375 513.433404,146.13998 499.38,150.22 Z" id="”"></path>
            </g>
        </g>
    </g>
</svg>